<svg xmlns="http://www.w3.org/2000/svg" xmlns:xlink="http://www.w3.org/1999/xlink" width="423" zoomAndPan="magnify" viewBox="0 0 317.25 197.249993" height="263" preserveAspectRatio="xMidYMid meet" version="1.0"><defs><g/><clipPath id="e70430db91"><path d="M 122.820312 12.578125 L 221.644531 12.578125 L 221.644531 127.765625 L 122.820312 127.765625 Z M 122.820312 12.578125 " clip-rule="nonzero"/></clipPath><clipPath id="59fbcb183a"><path d="M 94.257812 0 L 185 0 L 185 107 L 94.257812 107 Z M 94.257812 0 " clip-rule="nonzero"/></clipPath></defs><g fill="#008b95" fill-opacity="1"><g transform="translate(111.505224, 165.979629)"><g><path d="M 4.59375 0 L 1.25 0 C 0.832031 0 0.695312 -0.242188 0.84375 -0.734375 L 6.34375 -21.6875 C 6.507812 -22.175781 6.859375 -22.421875 7.390625 -22.421875 L 12.03125 -22.421875 C 12.601562 -22.421875 12.953125 -22.175781 13.078125 -21.6875 L 18.578125 -0.734375 C 18.722656 -0.242188 18.582031 0 18.15625 0 L 14.8125 0 C 14.5625 0 14.390625 -0.0507812 14.296875 -0.15625 C 14.203125 -0.257812 14.128906 -0.453125 14.078125 -0.734375 L 13.109375 -4.5625 L 6.3125 -4.5625 L 5.328125 -0.734375 C 5.285156 -0.453125 5.210938 -0.257812 5.109375 -0.15625 C 5.003906 -0.0507812 4.832031 0 4.59375 0 Z M 9.65625 -18.203125 L 7.140625 -8.125 L 12.3125 -8.125 L 9.796875 -18.203125 Z M 9.65625 -18.203125 "/></g></g></g><g fill="#008b95" fill-opacity="1"><g transform="translate(130.921999, 165.979629)"><g><path d="M 5.96875 0 L 3 0 C 2.507812 0 2.265625 -0.242188 2.265625 -0.734375 L 2.265625 -21.6875 C 2.265625 -22.175781 2.507812 -22.421875 3 -22.421875 L 5.96875 -22.421875 C 6.445312 -22.421875 6.6875 -22.175781 6.6875 -21.6875 L 6.6875 -11.75 L 6.765625 -11.75 C 6.953125 -12.300781 7.3125 -13.019531 7.84375 -13.90625 L 13.140625 -21.6875 C 13.441406 -22.175781 13.894531 -22.421875 14.5 -22.421875 L 17.921875 -22.421875 C 18.171875 -22.421875 18.320312 -22.34375 18.375 -22.1875 C 18.4375 -22.039062 18.378906 -21.847656 18.203125 -21.609375 L 11.578125 -12.4375 L 18.96875 -0.875 C 19.125 -0.59375 19.148438 -0.375 19.046875 -0.21875 C 18.941406 -0.0703125 18.726562 0 18.40625 0 L 15.859375 0 C 15.046875 0 14.5 -0.242188 14.21875 -0.734375 L 8.890625 -9.265625 L 6.6875 -6.6875 L 6.6875 -0.734375 C 6.6875 -0.242188 6.445312 0 5.96875 0 Z M 5.96875 0 "/></g></g></g><g fill="#008b95" fill-opacity="1"><g transform="translate(150.373626, 165.979629)"><g><path d="M 4.59375 0 L 1.25 0 C 0.832031 0 0.695312 -0.242188 0.84375 -0.734375 L 6.34375 -21.6875 C 6.507812 -22.175781 6.859375 -22.421875 7.390625 -22.421875 L 12.03125 -22.421875 C 12.601562 -22.421875 12.953125 -22.175781 13.078125 -21.6875 L 18.578125 -0.734375 C 18.722656 -0.242188 18.582031 0 18.15625 0 L 14.8125 0 C 14.5625 0 14.390625 -0.0507812 14.296875 -0.15625 C 14.203125 -0.257812 14.128906 -0.453125 14.078125 -0.734375 L 13.109375 -4.5625 L 6.3125 -4.5625 L 5.328125 -0.734375 C 5.285156 -0.453125 5.210938 -0.257812 5.109375 -0.15625 C 5.003906 -0.0507812 4.832031 0 4.59375 0 Z M 9.65625 -18.203125 L 7.140625 -8.125 L 12.3125 -8.125 L 9.796875 -18.203125 Z M 9.65625 -18.203125 "/></g></g></g><g fill="#008b95" fill-opacity="1"><g transform="translate(169.790401, 165.979629)"><g><path d="M 17.15625 -22.421875 L 22.3125 -22.421875 C 22.800781 -22.421875 23.046875 -22.175781 23.046875 -21.6875 L 23.046875 -0.734375 C 23.046875 -0.242188 22.800781 0 22.3125 0 L 19.453125 0 C 18.960938 0 18.71875 -0.242188 18.71875 -0.734375 L 18.71875 -17.25 L 18.578125 -17.25 L 15.03125 -5.578125 C 14.882812 -5.109375 14.59375 -4.875 14.15625 -4.875 L 11.21875 -4.875 C 10.78125 -4.875 10.492188 -5.109375 10.359375 -5.578125 L 6.734375 -17.296875 L 6.59375 -17.296875 L 6.59375 -0.734375 C 6.59375 -0.453125 6.546875 -0.257812 6.453125 -0.15625 C 6.359375 -0.0507812 6.160156 0 5.859375 0 L 3 0 C 2.507812 0 2.265625 -0.242188 2.265625 -0.734375 L 2.265625 -21.6875 C 2.265625 -22.175781 2.507812 -22.421875 3 -22.421875 L 8.1875 -22.421875 C 8.519531 -22.421875 8.742188 -22.253906 8.859375 -21.921875 L 12.546875 -9.625 L 12.765625 -9.625 L 16.484375 -21.921875 C 16.554688 -22.253906 16.78125 -22.421875 17.15625 -22.421875 Z M 17.15625 -22.421875 "/></g></g></g><g fill="#008b95" fill-opacity="1"><g transform="translate(195.09843, 165.979629)"><g><path d="M 6.875 -21.6875 L 6.875 -0.734375 C 6.875 -0.242188 6.628906 0 6.140625 0 L 3.171875 0 C 2.679688 0 2.4375 -0.242188 2.4375 -0.734375 L 2.4375 -21.6875 C 2.4375 -22.175781 2.679688 -22.421875 3.171875 -22.421875 L 6.140625 -22.421875 C 6.628906 -22.421875 6.875 -22.175781 6.875 -21.6875 Z M 6.875 -21.6875 "/></g></g></g><g fill="#f29e23" fill-opacity="1"><g transform="translate(124.095627, 189.838911)"><g><path d="M 5.609375 -8.84375 C 5.609375 -8.988281 5.679688 -9.0625 5.828125 -9.0625 L 7.21875 -9.0625 C 7.363281 -9.0625 7.4375 -8.988281 7.4375 -8.84375 L 7.4375 -0.21875 C 7.4375 -0.0703125 7.363281 0 7.21875 0 L 5.828125 0 C 5.679688 0 5.609375 -0.0703125 5.609375 -0.21875 L 5.609375 -3.71875 C 5.609375 -3.769531 5.582031 -3.796875 5.53125 -3.796875 L 2.6875 -3.796875 C 2.632812 -3.796875 2.609375 -3.769531 2.609375 -3.71875 L 2.609375 -0.21875 C 2.609375 -0.0703125 2.535156 0 2.390625 0 L 1.015625 0 C 0.867188 0 0.796875 -0.0703125 0.796875 -0.21875 L 0.796875 -8.84375 C 0.796875 -8.988281 0.867188 -9.0625 1.015625 -9.0625 L 2.390625 -9.0625 C 2.535156 -9.0625 2.609375 -8.988281 2.609375 -8.84375 L 2.609375 -5.4375 C 2.609375 -5.382812 2.632812 -5.359375 2.6875 -5.359375 L 5.53125 -5.359375 C 5.582031 -5.359375 5.609375 -5.382812 5.609375 -5.4375 Z M 5.609375 -8.84375 "/></g></g></g><g fill="#f29e23" fill-opacity="1"><g transform="translate(133.52128, 189.838911)"><g><path d="M 4.015625 0.140625 C 3.335938 0.140625 2.742188 0.00390625 2.234375 -0.265625 C 1.722656 -0.546875 1.320312 -0.929688 1.03125 -1.421875 C 0.75 -1.921875 0.609375 -2.492188 0.609375 -3.140625 L 0.609375 -5.921875 C 0.609375 -6.554688 0.75 -7.117188 1.03125 -7.609375 C 1.320312 -8.109375 1.722656 -8.492188 2.234375 -8.765625 C 2.742188 -9.035156 3.335938 -9.171875 4.015625 -9.171875 C 4.691406 -9.171875 5.285156 -9.035156 5.796875 -8.765625 C 6.316406 -8.492188 6.71875 -8.109375 7 -7.609375 C 7.289062 -7.117188 7.4375 -6.554688 7.4375 -5.921875 L 7.4375 -3.140625 C 7.4375 -2.492188 7.289062 -1.921875 7 -1.421875 C 6.71875 -0.921875 6.316406 -0.535156 5.796875 -0.265625 C 5.285156 0.00390625 4.691406 0.140625 4.015625 0.140625 Z M 4.015625 -1.421875 C 4.492188 -1.421875 4.878906 -1.570312 5.171875 -1.875 C 5.460938 -2.175781 5.609375 -2.578125 5.609375 -3.078125 L 5.609375 -5.9375 C 5.609375 -6.4375 5.460938 -6.835938 5.171875 -7.140625 C 4.878906 -7.453125 4.492188 -7.609375 4.015625 -7.609375 C 3.535156 -7.609375 3.148438 -7.453125 2.859375 -7.140625 C 2.578125 -6.835938 2.4375 -6.4375 2.4375 -5.9375 L 2.4375 -3.078125 C 2.4375 -2.578125 2.578125 -2.175781 2.859375 -1.875 C 3.148438 -1.570312 3.535156 -1.421875 4.015625 -1.421875 Z M 4.015625 -1.421875 "/></g></g></g><g fill="#f29e23" fill-opacity="1"><g transform="translate(142.856298, 189.838911)"><g><path d="M 3.859375 0.109375 C 3.179688 0.109375 2.585938 0 2.078125 -0.21875 C 1.578125 -0.445312 1.1875 -0.765625 0.90625 -1.171875 C 0.632812 -1.578125 0.5 -2.054688 0.5 -2.609375 L 0.5 -2.828125 C 0.5 -2.972656 0.570312 -3.046875 0.71875 -3.046875 L 2.078125 -3.046875 C 2.222656 -3.046875 2.296875 -2.988281 2.296875 -2.875 L 2.296875 -2.6875 C 2.296875 -2.34375 2.453125 -2.050781 2.765625 -1.8125 C 3.078125 -1.582031 3.488281 -1.46875 4 -1.46875 C 4.457031 -1.46875 4.796875 -1.5625 5.015625 -1.75 C 5.234375 -1.945312 5.34375 -2.1875 5.34375 -2.46875 C 5.34375 -2.675781 5.273438 -2.851562 5.140625 -3 C 5.003906 -3.144531 4.816406 -3.269531 4.578125 -3.375 C 4.347656 -3.476562 3.972656 -3.628906 3.453125 -3.828125 C 2.867188 -4.023438 2.378906 -4.222656 1.984375 -4.421875 C 1.585938 -4.628906 1.25 -4.910156 0.96875 -5.265625 C 0.695312 -5.628906 0.5625 -6.078125 0.5625 -6.609375 C 0.5625 -7.128906 0.691406 -7.582031 0.953125 -7.96875 C 1.222656 -8.351562 1.597656 -8.648438 2.078125 -8.859375 C 2.554688 -9.066406 3.101562 -9.171875 3.71875 -9.171875 C 4.375 -9.171875 4.957031 -9.050781 5.46875 -8.8125 C 5.988281 -8.582031 6.394531 -8.257812 6.6875 -7.84375 C 6.976562 -7.425781 7.125 -6.941406 7.125 -6.390625 L 7.125 -6.25 C 7.125 -6.101562 7.050781 -6.03125 6.90625 -6.03125 L 5.546875 -6.03125 C 5.398438 -6.03125 5.328125 -6.078125 5.328125 -6.171875 L 5.328125 -6.296875 C 5.328125 -6.660156 5.175781 -6.96875 4.875 -7.21875 C 4.582031 -7.476562 4.175781 -7.609375 3.65625 -7.609375 C 3.238281 -7.609375 2.914062 -7.519531 2.6875 -7.34375 C 2.46875 -7.164062 2.359375 -6.925781 2.359375 -6.625 C 2.359375 -6.414062 2.421875 -6.238281 2.546875 -6.09375 C 2.679688 -5.945312 2.878906 -5.8125 3.140625 -5.6875 C 3.398438 -5.5625 3.804688 -5.40625 4.359375 -5.21875 C 4.960938 -5 5.441406 -4.800781 5.796875 -4.625 C 6.148438 -4.457031 6.46875 -4.203125 6.75 -3.859375 C 7.03125 -3.515625 7.171875 -3.070312 7.171875 -2.53125 C 7.171875 -2 7.035156 -1.535156 6.765625 -1.140625 C 6.492188 -0.742188 6.109375 -0.4375 5.609375 -0.21875 C 5.117188 0 4.535156 0.109375 3.859375 0.109375 Z M 3.859375 0.109375 "/></g></g></g><g fill="#f29e23" fill-opacity="1"><g transform="translate(151.815864, 189.838911)"><g><path d="M 4.53125 -9.078125 C 5.101562 -9.078125 5.601562 -8.957031 6.03125 -8.71875 C 6.46875 -8.488281 6.800781 -8.160156 7.03125 -7.734375 C 7.269531 -7.304688 7.390625 -6.816406 7.390625 -6.265625 C 7.390625 -5.722656 7.265625 -5.242188 7.015625 -4.828125 C 6.773438 -4.410156 6.429688 -4.085938 5.984375 -3.859375 C 5.546875 -3.628906 5.035156 -3.515625 4.453125 -3.515625 L 2.625 -3.515625 C 2.570312 -3.515625 2.546875 -3.492188 2.546875 -3.453125 L 2.546875 -0.21875 C 2.546875 -0.0703125 2.472656 0 2.328125 0 L 0.953125 0 C 0.796875 0 0.71875 -0.0703125 0.71875 -0.21875 L 0.71875 -8.859375 C 0.71875 -9.003906 0.796875 -9.078125 0.953125 -9.078125 Z M 4.265625 -4.984375 C 4.660156 -4.984375 4.976562 -5.097656 5.21875 -5.328125 C 5.457031 -5.554688 5.578125 -5.859375 5.578125 -6.234375 C 5.578125 -6.609375 5.457031 -6.910156 5.21875 -7.140625 C 4.976562 -7.378906 4.660156 -7.5 4.265625 -7.5 L 2.625 -7.5 C 2.570312 -7.5 2.546875 -7.472656 2.546875 -7.421875 L 2.546875 -5.0625 C 2.546875 -5.007812 2.570312 -4.984375 2.625 -4.984375 Z M 4.265625 -4.984375 "/></g></g></g><g fill="#f29e23" fill-opacity="1"><g transform="translate(160.840167, 189.838911)"><g><path d="M 1.015625 0 C 0.867188 0 0.796875 -0.0703125 0.796875 -0.21875 L 0.796875 -8.84375 C 0.796875 -8.988281 0.867188 -9.0625 1.015625 -9.0625 L 2.390625 -9.0625 C 2.535156 -9.0625 2.609375 -8.988281 2.609375 -8.84375 L 2.609375 -0.21875 C 2.609375 -0.0703125 2.535156 0 2.390625 0 Z M 1.015625 0 "/></g></g></g><g fill="#f29e23" fill-opacity="1"><g transform="translate(165.540237, 189.838911)"><g><path d="M 6.984375 -9.0625 C 7.128906 -9.0625 7.203125 -8.988281 7.203125 -8.84375 L 7.203125 -7.703125 C 7.203125 -7.554688 7.128906 -7.484375 6.984375 -7.484375 L 4.734375 -7.484375 C 4.679688 -7.484375 4.65625 -7.457031 4.65625 -7.40625 L 4.65625 -0.21875 C 4.65625 -0.0703125 4.582031 0 4.4375 0 L 3.0625 0 C 2.914062 0 2.84375 -0.0703125 2.84375 -0.21875 L 2.84375 -7.40625 C 2.84375 -7.457031 2.816406 -7.484375 2.765625 -7.484375 L 0.578125 -7.484375 C 0.429688 -7.484375 0.359375 -7.554688 0.359375 -7.703125 L 0.359375 -8.84375 C 0.359375 -8.988281 0.429688 -9.0625 0.578125 -9.0625 Z M 6.984375 -9.0625 "/></g></g></g><g fill="#f29e23" fill-opacity="1"><g transform="translate(174.409171, 189.838911)"><g><path d="M 6.625 0 C 6.5 0 6.414062 -0.0625 6.375 -0.1875 L 6.015625 -1.390625 C 6.003906 -1.429688 5.976562 -1.453125 5.9375 -1.453125 L 2.765625 -1.453125 C 2.710938 -1.453125 2.6875 -1.429688 2.6875 -1.390625 L 2.3125 -0.1875 C 2.269531 -0.0625 2.191406 0 2.078125 0 L 0.5625 0 C 0.488281 0 0.429688 -0.0195312 0.390625 -0.0625 C 0.359375 -0.113281 0.359375 -0.175781 0.390625 -0.25 L 3.140625 -8.890625 C 3.191406 -9.003906 3.273438 -9.0625 3.390625 -9.0625 L 5.296875 -9.0625 C 5.421875 -9.0625 5.503906 -9.003906 5.546875 -8.890625 L 8.296875 -0.25 C 8.304688 -0.226562 8.3125 -0.203125 8.3125 -0.171875 C 8.3125 -0.117188 8.296875 -0.078125 8.265625 -0.046875 C 8.234375 -0.015625 8.1875 0 8.125 0 Z M 3.140625 -2.953125 C 3.128906 -2.890625 3.148438 -2.859375 3.203125 -2.859375 L 5.484375 -2.859375 C 5.535156 -2.859375 5.5625 -2.890625 5.5625 -2.953125 L 4.390625 -6.90625 C 4.378906 -6.9375 4.363281 -6.953125 4.34375 -6.953125 C 4.320312 -6.953125 4.300781 -6.9375 4.28125 -6.90625 Z M 3.140625 -2.953125 "/></g></g></g><g fill="#f29e23" fill-opacity="1"><g transform="translate(184.391535, 189.838911)"><g><path d="M 1.015625 0 C 0.867188 0 0.796875 -0.0703125 0.796875 -0.21875 L 0.796875 -8.84375 C 0.796875 -8.988281 0.867188 -9.0625 1.015625 -9.0625 L 2.390625 -9.0625 C 2.535156 -9.0625 2.609375 -8.988281 2.609375 -8.84375 L 2.609375 -1.640625 C 2.609375 -1.585938 2.632812 -1.5625 2.6875 -1.5625 L 6.859375 -1.5625 C 7.003906 -1.5625 7.078125 -1.488281 7.078125 -1.34375 L 7.078125 -0.21875 C 7.078125 -0.0703125 7.003906 0 6.859375 0 Z M 1.015625 0 "/></g></g></g><path fill="#008b95" d="M 131.648438 117.210938 L 131.648438 106.859375 C 140.980469 96.003906 142.199219 84.949219 139.417969 73.097656 C 135.660156 57.082031 122.109375 46.75 116.777344 43.226562 C 122.496094 45.660156 137.933594 53.449219 144.53125 68.730469 C 151.097656 83.9375 150.117188 98.992188 131.648438 117.210938 " fill-opacity="1" fill-rule="nonzero"/><g clip-path="url(#e70430db91)"><path fill="#f29e23" d="M 195.34375 37.449219 C 188.121094 48.695312 184.253906 61.808594 184.253906 61.808594 C 185.878906 49.082031 191.28125 37.449219 191.28125 37.449219 C 197.628906 21.640625 205.964844 12.671875 205.964844 12.671875 C 205.957031 12.675781 205.949219 12.683594 205.9375 12.691406 C 205.101562 13.253906 188.414062 19.632812 173.71875 71.773438 C 160.925781 117.148438 122.878906 124.882812 122.878906 124.882812 C 122.878906 124.882812 126.535156 124.730469 131.648438 123.601562 L 131.648438 127.808594 L 163.304688 127.808594 C 174.875 127.808594 184.253906 118.429688 184.253906 106.859375 L 184.253906 90.054688 L 221.644531 90.054688 L 221.644531 58.398438 C 221.644531 46.832031 212.261719 37.449219 200.695312 37.449219 L 195.34375 37.449219 " fill-opacity="1" fill-rule="nonzero"/></g><g clip-path="url(#59fbcb183a)"><path fill="#06a9b1" d="M 165.328125 48.816406 C 165.175781 50.105469 164.816406 51.316406 164.285156 52.390625 C 163.234375 54.507812 161.5 56.09375 159.285156 56.6875 C 154.59375 57.953125 149.527344 54.277344 147.972656 48.484375 C 147.894531 48.199219 147.828125 47.914062 147.773438 47.632812 C 147.328125 45.414062 147.472656 43.234375 148.097656 41.351562 C 148.558594 37.523438 150.804688 34.371094 154.144531 33.476562 C 158.835938 32.210938 163.898438 35.886719 165.460938 41.679688 C 166.132812 44.195312 166.035156 46.691406 165.328125 48.816406 Z M 152.597656 0.0625 C 141.027344 0.0625 131.648438 9.441406 131.648438 21.011719 L 131.648438 37.449219 L 94.257812 37.449219 L 94.257812 69.105469 C 94.257812 77.160156 98.800781 84.152344 105.460938 87.65625 C 108.375 89.1875 111.691406 90.054688 115.207031 90.054688 L 131.648438 90.054688 L 131.648438 106.859375 C 140.984375 96.003906 142.199219 84.949219 139.417969 73.097656 C 135.660156 57.082031 122.109375 46.753906 116.777344 43.226562 C 115.40625 42.640625 114.597656 42.367188 114.597656 42.367188 C 114.953125 42.410156 115.308594 42.457031 115.660156 42.507812 C 116.183594 42.578125 116.699219 42.65625 117.210938 42.742188 C 131.214844 45.027344 141.667969 51.0625 148.761719 56.746094 C 150.757812 58.347656 152.484375 59.917969 153.957031 61.367188 C 157.425781 64.796875 159.445312 67.5625 160.070312 68.464844 C 160.210938 68.667969 160.28125 68.777344 160.28125 68.777344 C 160.480469 68.308594 160.679688 67.839844 160.878906 67.378906 C 167.996094 50.9375 176.53125 38.949219 184.253906 30.457031 L 184.253906 0.0625 L 152.597656 0.0625 " fill-opacity="1" fill-rule="nonzero"/></g><path fill="#008b95" d="M 165.328125 48.816406 C 165.175781 50.105469 164.816406 51.316406 164.285156 52.390625 C 163.234375 54.507812 161.5 56.09375 159.285156 56.6875 C 154.59375 57.953125 149.527344 54.277344 147.972656 48.484375 C 147.894531 48.199219 147.828125 47.914062 147.773438 47.632812 C 147.328125 45.414062 147.472656 43.234375 148.097656 41.351562 C 147.941406 42.644531 147.992188 44.011719 148.269531 45.398438 C 148.324219 45.683594 148.390625 45.96875 148.46875 46.25 C 150.023438 52.042969 155.089844 55.71875 159.78125 54.457031 C 161.996094 53.859375 163.730469 52.273438 164.78125 50.152344 C 164.992188 49.730469 165.175781 49.28125 165.328125 48.816406 " fill-opacity="1" fill-rule="nonzero"/><g fill="#161616" fill-opacity="1"><g transform="translate(216.580865, 126.682493)"><g><path d="M 2.75 -6.34375 C 3.375 -6.34375 3.882812 -6.191406 4.28125 -5.890625 C 4.6875 -5.585938 4.890625 -5.191406 4.890625 -4.703125 C 4.890625 -4.117188 4.492188 -3.425781 3.703125 -2.625 L 2.4375 -1.265625 L 5.078125 -1.265625 L 5.078125 0 L 0.375 0 L 0.375 -1.03125 L 2.625 -3.40625 C 3.019531 -3.820312 3.21875 -4.179688 3.21875 -4.484375 C 3.21875 -4.660156 3.15625 -4.800781 3.03125 -4.90625 C 2.90625 -5.007812 2.734375 -5.0625 2.515625 -5.0625 C 1.992188 -5.0625 1.421875 -4.796875 0.796875 -4.265625 L 0.203125 -5.40625 C 1.035156 -6.03125 1.882812 -6.34375 2.75 -6.34375 Z M 2.75 -6.34375 "/></g></g></g><g fill="#161616" fill-opacity="1"><g transform="translate(222.408749, 126.682493)"><g><path d="M 3.15625 -6.328125 C 4.050781 -6.328125 4.734375 -6.050781 5.203125 -5.5 C 5.679688 -4.957031 5.921875 -4.171875 5.921875 -3.140625 C 5.921875 -2.117188 5.679688 -1.332031 5.203125 -0.78125 C 4.734375 -0.226562 4.050781 0.046875 3.15625 0.046875 C 2.257812 0.046875 1.570312 -0.226562 1.09375 -0.78125 C 0.613281 -1.332031 0.375 -2.117188 0.375 -3.140625 C 0.375 -4.171875 0.613281 -4.957031 1.09375 -5.5 C 1.570312 -6.050781 2.257812 -6.328125 3.15625 -6.328125 Z M 3.15625 -5.171875 C 2.75 -5.171875 2.457031 -5.007812 2.28125 -4.6875 C 2.101562 -4.375 2.015625 -3.859375 2.015625 -3.140625 C 2.015625 -2.429688 2.101562 -1.914062 2.28125 -1.59375 C 2.457031 -1.28125 2.75 -1.125 3.15625 -1.125 C 3.550781 -1.125 3.835938 -1.28125 4.015625 -1.59375 C 4.203125 -1.914062 4.296875 -2.429688 4.296875 -3.140625 C 4.296875 -3.859375 4.203125 -4.375 4.015625 -4.6875 C 3.835938 -5.007812 3.550781 -5.171875 3.15625 -5.171875 Z M 3.15625 -5.171875 "/></g></g></g><g fill="#161616" fill-opacity="1"><g transform="translate(229.160127, 126.682493)"><g><path d="M 2.75 -6.34375 C 3.375 -6.34375 3.882812 -6.191406 4.28125 -5.890625 C 4.6875 -5.585938 4.890625 -5.191406 4.890625 -4.703125 C 4.890625 -4.117188 4.492188 -3.425781 3.703125 -2.625 L 2.4375 -1.265625 L 5.078125 -1.265625 L 5.078125 0 L 0.375 0 L 0.375 -1.03125 L 2.625 -3.40625 C 3.019531 -3.820312 3.21875 -4.179688 3.21875 -4.484375 C 3.21875 -4.660156 3.15625 -4.800781 3.03125 -4.90625 C 2.90625 -5.007812 2.734375 -5.0625 2.515625 -5.0625 C 1.992188 -5.0625 1.421875 -4.796875 0.796875 -4.265625 L 0.203125 -5.40625 C 1.035156 -6.03125 1.882812 -6.34375 2.75 -6.34375 Z M 2.75 -6.34375 "/></g></g></g><g fill="#161616" fill-opacity="1"><g transform="translate(234.988011, 126.682493)"><g><path d="M 1.890625 -2.59375 L 3.21875 -2.59375 L 3.21875 -3.9375 L 4.703125 -3.9375 L 4.703125 -2.59375 L 5.546875 -2.59375 L 5.546875 -1.375 L 4.703125 -1.375 L 4.703125 0 L 3.21875 0 L 3.21875 -1.375 L 0.234375 -1.375 L 0.234375 -2.453125 L 2.21875 -6.28125 L 3.765625 -6.28125 Z M 1.890625 -2.59375 "/></g></g></g><g fill="#161616" fill-opacity="1"><g transform="translate(74.512913, 126.682493)"><g><path d="M 5.546875 -5.015625 L 2.21875 -5.015625 L 2.21875 -3.78125 L 5.21875 -3.78125 L 5.21875 -2.515625 L 2.21875 -2.515625 L 2.21875 -1.25 L 5.640625 -1.25 L 5.640625 0 L 0.625 0 L 0.625 -6.28125 L 5.546875 -6.28125 Z M 5.546875 -5.015625 "/></g></g></g><g fill="#161616" fill-opacity="1"><g transform="translate(81.004275, 126.682493)"><g><path d="M 3.046875 -6.34375 C 3.984375 -6.34375 4.804688 -6.113281 5.515625 -5.65625 L 4.921875 -4.40625 C 4.585938 -4.59375 4.234375 -4.75 3.859375 -4.875 C 3.484375 -5 3.164062 -5.0625 2.90625 -5.0625 C 2.445312 -5.0625 2.21875 -4.90625 2.21875 -4.59375 C 2.21875 -4.40625 2.328125 -4.25 2.546875 -4.125 C 2.773438 -4.007812 3.050781 -3.90625 3.375 -3.8125 C 3.707031 -3.726562 4.035156 -3.625 4.359375 -3.5 C 4.691406 -3.375 4.96875 -3.175781 5.1875 -2.90625 C 5.414062 -2.632812 5.53125 -2.285156 5.53125 -1.859375 C 5.53125 -1.253906 5.289062 -0.785156 4.8125 -0.453125 C 4.34375 -0.117188 3.742188 0.046875 3.015625 0.046875 C 2.503906 0.046875 1.992188 -0.0390625 1.484375 -0.21875 C 0.972656 -0.394531 0.53125 -0.640625 0.15625 -0.953125 L 0.765625 -2.171875 C 1.085938 -1.898438 1.460938 -1.675781 1.890625 -1.5 C 2.316406 -1.320312 2.703125 -1.234375 3.046875 -1.234375 C 3.296875 -1.234375 3.492188 -1.28125 3.640625 -1.375 C 3.785156 -1.46875 3.859375 -1.601562 3.859375 -1.78125 C 3.859375 -1.957031 3.773438 -2.101562 3.609375 -2.21875 C 3.441406 -2.332031 3.234375 -2.414062 2.984375 -2.46875 C 2.742188 -2.53125 2.476562 -2.609375 2.1875 -2.703125 C 1.90625 -2.804688 1.640625 -2.910156 1.390625 -3.015625 C 1.148438 -3.128906 0.945312 -3.3125 0.78125 -3.5625 C 0.613281 -3.8125 0.53125 -4.109375 0.53125 -4.453125 C 0.53125 -5.023438 0.757812 -5.484375 1.21875 -5.828125 C 1.675781 -6.171875 2.285156 -6.34375 3.046875 -6.34375 Z M 3.046875 -6.34375 "/></g></g></g><g fill="#161616" fill-opacity="1"><g transform="translate(87.226659, 126.682493)"><g><path d="M 5.421875 -5 L 3.53125 -5 L 3.53125 0 L 1.9375 0 L 1.9375 -5 L 0.0625 -5 L 0.0625 -6.28125 L 5.421875 -6.28125 Z M 5.421875 -5 "/></g></g></g><g fill="#161616" fill-opacity="1"><g transform="translate(93.153159, 126.682493)"><g><path d="M 0.625 -6.28125 L 3.328125 -6.28125 C 4.316406 -6.28125 5.117188 -5.988281 5.734375 -5.40625 C 6.347656 -4.820312 6.65625 -4.066406 6.65625 -3.140625 C 6.65625 -2.210938 6.34375 -1.457031 5.71875 -0.875 C 5.09375 -0.289062 4.273438 0 3.265625 0 L 0.625 0 Z M 2.21875 -5 L 2.21875 -1.28125 L 3.359375 -1.28125 C 3.847656 -1.28125 4.25 -1.453125 4.5625 -1.796875 C 4.882812 -2.140625 5.046875 -2.582031 5.046875 -3.125 C 5.046875 -3.675781 4.878906 -4.125 4.546875 -4.46875 C 4.210938 -4.820312 3.796875 -5 3.296875 -5 Z M 2.21875 -5 "/></g></g></g></svg>